<?xml version="1.0" encoding="utf-8"?>
<!-- Generator: Adobe Illustrator 24.1.3, SVG Export Plug-In . SVG Version: 6.00 Build 0)  -->
<svg version="1.1" id="Layer_1" xmlns="http://www.w3.org/2000/svg" xmlns:xlink="http://www.w3.org/1999/xlink" x="0px" y="0px"
	 viewBox="0 0 1121.22 1036.62" style="enable-background:new 0 0 1121.22 1036.62;" xml:space="preserve">
<style type="text/css">
	.st0{display:none;}
	.st1{display:inline;}
</style>
<g>
	<path d="M93.46,838.08l-15.84-3.96c-4.48-1.15-8.01-2.81-10.59-4.99c-2.58-2.18-3.87-5.17-3.87-8.95c0-4.82,1.64-8.55,4.91-11.19
		c3.27-2.64,7.77-3.96,13.51-3.96c5.62,0,10.27,1.38,13.95,4.13c3.67,2.75,6.2,6.08,7.58,9.99l22.9-7.06
		c-2.07-5.62-5.05-10.5-8.95-14.63c-3.9-4.13-8.75-7.32-14.55-9.55c-5.8-2.24-12.54-3.36-20.23-3.36c-13.77,0-24.42,3.18-31.94,9.55
		c-7.52,6.37-11.28,15.24-11.28,26.6c0,5.97,1.26,11.19,3.79,15.67c2.52,4.48,6.03,8.24,10.5,11.28c4.48,3.04,9.64,5.31,15.49,6.8
		l15.67,4.13c5.28,1.38,9.44,3.36,12.48,5.94c3.04,2.58,4.56,5.77,4.56,9.56c0,4.36-1.92,7.92-5.77,10.67
		c-3.85,2.75-8.81,4.08-14.89,3.96c-5.74-0.11-10.5-1.58-14.29-4.39c-3.79-2.81-6.43-6.17-7.92-10.07l-23.07,6.89
		c0.8,3.67,2.55,7.17,5.25,10.5c2.69,3.33,6.11,6.34,10.24,9.04c4.13,2.7,8.84,4.79,14.12,6.28c5.28,1.49,10.96,2.24,17.05,2.24
		c9.3,0,17.21-1.49,23.76-4.48c6.54-2.98,11.53-7.14,14.98-12.48c3.44-5.34,5.16-11.56,5.16-18.68c0-8.03-2.87-15.32-8.61-21.86
		C111.82,845.14,103.79,840.6,93.46,838.08z"/>
	<polygon points="253.2,871.21 229.64,786.6 227.57,786.6 208.29,786.6 206.22,786.6 182.87,872.2 158.53,786.6 134.6,786.6 
		170.24,907.12 173.34,907.12 192.79,907.12 194.86,907.12 217.88,822.31 240.65,907.12 242.89,907.12 263.21,907.12 265.45,907.12 
		301.43,786.6 277.5,786.6 	"/>
	<polygon points="339.47,856.5 384.92,856.5 384.92,835.5 339.47,835.5 339.47,808.12 392.15,808.12 392.15,786.6 315.89,786.6 
		315.89,907.12 392.84,907.12 392.84,885.6 339.47,885.6 	"/>
	<polygon points="493.55,808.12 493.55,786.6 417.29,786.6 417.29,907.12 494.24,907.12 494.24,885.6 440.87,885.6 440.87,856.5 
		486.32,856.5 486.32,835.5 440.87,835.5 440.87,808.12 	"/>
	<polygon points="603.74,786.6 508.01,786.6 508.01,808.12 544.17,808.12 544.17,907.12 567.75,907.12 567.75,808.12 603.74,808.12 
			"/>
	<path d="M714.18,884.73c-3.85,2.75-8.81,4.08-14.89,3.96c-5.74-0.11-10.5-1.58-14.29-4.39c-3.79-2.81-6.43-6.17-7.92-10.07
		l-23.07,6.89c0.8,3.67,2.55,7.17,5.25,10.5c2.7,3.33,6.11,6.34,10.24,9.04c4.13,2.7,8.84,4.79,14.12,6.28
		c5.28,1.49,10.96,2.24,17.04,2.24c9.3,0,17.22-1.49,23.76-4.48c6.54-2.98,11.54-7.14,14.98-12.48c3.44-5.34,5.17-11.56,5.17-18.68
		c0-8.03-2.87-15.32-8.61-21.86c-5.74-6.54-13.77-11.08-24.1-13.6l-15.84-3.96c-4.48-1.15-8.01-2.81-10.59-4.99
		c-2.58-2.18-3.87-5.17-3.87-8.95c0-4.82,1.64-8.55,4.91-11.19c3.27-2.64,7.77-3.96,13.51-3.96c5.62,0,10.27,1.38,13.94,4.13
		c3.67,2.75,6.2,6.08,7.58,9.99l22.9-7.06c-2.07-5.62-5.05-10.5-8.95-14.63c-3.9-4.13-8.75-7.32-14.55-9.55
		c-5.8-2.24-12.54-3.36-20.23-3.36c-13.77,0-24.42,3.18-31.94,9.55c-7.52,6.37-11.28,15.24-11.28,26.6c0,5.97,1.26,11.19,3.79,15.67
		c2.52,4.48,6.03,8.24,10.5,11.28c4.48,3.04,9.64,5.31,15.49,6.8l15.67,4.13c5.28,1.38,9.44,3.36,12.48,5.94
		c3.04,2.58,4.56,5.77,4.56,9.56C719.94,878.42,718.02,881.98,714.18,884.73z"/>
	<path d="M847.51,847.55c3.56-6.08,5.34-13.03,5.34-20.83c0-7.92-1.84-14.89-5.51-20.92c-3.67-6.02-8.78-10.73-15.32-14.12
		c-6.54-3.38-14.06-5.08-22.55-5.08H764.7v120.51h23.59v-39.94h23.07c8.15,0,15.32-1.75,21.52-5.25
		C839.08,858.42,843.95,853.63,847.51,847.55z M823.84,840.23c-3.39,3.5-7.72,5.25-13,5.25h-22.55v-37.36h20.66
		c5.85,0,10.64,1.72,14.38,5.16c3.73,3.44,5.59,7.92,5.59,13.43C828.92,832.23,827.23,836.73,823.84,840.23z"/>
	<path d="M955.2,792.71c-9.24-5.34-19.94-8.01-32.11-8.01c-12.05,0-22.7,2.64-31.94,7.92c-9.24,5.28-16.5,12.6-21.78,21.95
		c-5.28,9.36-7.92,20.17-7.92,32.45c0,12.05,2.64,22.75,7.92,32.11c5.28,9.36,12.59,16.7,21.95,22.04
		c9.35,5.34,20.11,8.01,32.28,8.01c11.94,0,22.52-2.67,31.76-8.01c9.24-5.34,16.47-12.68,21.69-22.04
		c5.22-9.35,7.83-20.06,7.83-32.11c0-12.16-2.64-22.92-7.92-32.28C971.7,805.4,964.44,798.05,955.2,792.71z M956.06,868.04
		c-3.16,6.08-7.52,10.88-13.08,14.38c-5.57,3.5-12.02,5.25-19.37,5.25c-7.46,0-14.06-1.75-19.8-5.25
		c-5.74-3.5-10.22-8.29-13.43-14.38c-3.21-6.08-4.82-13.08-4.82-21c0-8.03,1.61-15.09,4.82-21.18c3.21-6.08,7.66-10.87,13.34-14.38
		c5.68-3.5,12.14-5.25,19.37-5.25c7.46,0,14,1.75,19.63,5.25c5.62,3.5,10.04,8.29,13.26,14.38c3.21,6.08,4.82,13.14,4.82,21.18
		C960.8,854.95,959.22,861.95,956.06,868.04z"/>
	<polygon points="989.89,786.6 989.89,808.12 1026.04,808.12 1026.04,907.12 1049.63,907.12 1049.63,808.12 1085.61,808.12 
		1085.61,786.6 	"/>
	<path d="M210.71,994.32c-1.47,1.5-3.14,2.67-4.99,3.51c-1.86,0.84-3.85,1.27-5.97,1.27c-3.23,0-6.11-0.8-8.64-2.39
		c-2.53-1.59-4.51-3.79-5.93-6.58c-1.42-2.8-2.13-6-2.13-9.62c0-3.62,0.71-6.81,2.13-9.58c1.42-2.77,3.37-4.95,5.86-6.55
		c2.48-1.59,5.32-2.39,8.5-2.39c2.07,0,4.05,0.39,5.93,1.16c1.88,0.77,3.56,1.87,5.03,3.29c1.47,1.42,2.64,3.05,3.51,4.88l7.67-3.11
		c-1.21-2.75-2.93-5.16-5.17-7.23c-2.24-2.07-4.81-3.7-7.7-4.88c-2.89-1.18-5.98-1.77-9.26-1.77c-4.87,0-9.19,1.12-12.95,3.36
		c-3.76,2.24-6.72,5.33-8.86,9.26c-2.15,3.93-3.22,8.45-3.22,13.56c0,5.11,1.07,9.63,3.22,13.56c2.15,3.93,5.11,7.02,8.9,9.26
		c3.78,2.24,8.11,3.36,12.98,3.36c3.33,0,6.46-0.6,9.4-1.81c2.94-1.2,5.52-2.9,7.74-5.1c2.22-2.19,3.93-4.71,5.14-7.56l-7.67-3.11
		C213.35,991.09,212.18,992.82,210.71,994.32z"/>
	<path d="M284.34,957.68c-3.83-2.24-8.26-3.36-13.27-3.36c-4.97,0-9.36,1.12-13.16,3.36c-3.81,2.24-6.81,5.33-9.01,9.26
		c-2.19,3.93-3.29,8.45-3.29,13.56c0,5.11,1.1,9.65,3.29,13.6c2.19,3.95,5.22,7.04,9.08,9.26c3.86,2.22,8.29,3.33,13.31,3.33
		c4.97,0,9.34-1.11,13.13-3.33c3.78-2.22,6.75-5.3,8.9-9.26c2.15-3.95,3.22-8.49,3.22-13.6c0-5.11-1.07-9.63-3.22-13.56
		C291.17,963.01,288.18,959.92,284.34,957.68z M285.86,990.08c-1.42,2.77-3.39,4.95-5.9,6.55c-2.51,1.59-5.4,2.39-8.68,2.39
		c-3.33,0-6.28-0.8-8.86-2.39c-2.58-1.59-4.61-3.77-6.08-6.55c-1.47-2.77-2.21-5.97-2.21-9.58c0-3.62,0.73-6.81,2.21-9.58
		c1.47-2.77,3.47-4.94,6-6.51c2.53-1.57,5.44-2.35,8.72-2.35c3.33,0,6.26,0.78,8.79,2.35c2.53,1.57,4.52,3.75,5.97,6.55
		c1.45,2.8,2.17,5.98,2.17,9.55C288,984.12,287.29,987.31,285.86,990.08z"/>
	<polygon points="359.82,991.78 332.91,955.18 324.23,955.18 324.23,1005.82 332.62,1005.82 332.62,968.78 359.82,1005.82 
		368.21,1005.82 368.21,955.18 359.82,955.18 	"/>
	<path d="M419.57,977.25l-6.22-1.52c-2.12-0.53-3.8-1.31-5.03-2.35c-1.23-1.04-1.84-2.5-1.84-4.38c0-2.31,0.78-4.12,2.35-5.42
		c1.57-1.3,3.73-1.95,6.47-1.95c2.65,0,4.87,0.63,6.65,1.88c1.78,1.25,3.04,2.85,3.76,4.77l8.1-2.6c-0.77-2.17-1.95-4.11-3.54-5.82
		c-1.59-1.71-3.61-3.06-6.04-4.05c-2.44-0.99-5.27-1.48-8.5-1.48c-5.74,0-10.15,1.31-13.24,3.94c-3.09,2.63-4.63,6.31-4.63,11.03
		c0,2.51,0.54,4.68,1.63,6.51c1.08,1.83,2.58,3.35,4.48,4.56c1.9,1.21,4.04,2.12,6.4,2.75l6.22,1.59c2.6,0.68,4.68,1.63,6.22,2.86
		c1.54,1.23,2.31,2.81,2.31,4.74c0,2.12-0.92,3.83-2.75,5.14c-1.83,1.3-4.32,1.95-7.45,1.95c-2.7-0.05-4.97-0.75-6.8-2.1
		c-1.83-1.35-3.06-2.92-3.69-4.7l-8.25,2.53c0.43,1.5,1.19,2.93,2.28,4.3c1.09,1.37,2.46,2.62,4.12,3.73
		c1.66,1.11,3.59,1.98,5.79,2.6c2.19,0.63,4.62,0.94,7.27,0.94c3.91,0,7.22-0.63,9.95-1.88c2.72-1.25,4.79-2.99,6.18-5.21
		c1.4-2.22,2.1-4.77,2.1-7.67c0-3.28-1.25-6.27-3.76-8.97C427.62,980.26,424.1,978.36,419.57,977.25z"/>
	<polygon points="456.89,962.85 472.44,962.85 472.44,1005.82 480.83,1005.82 480.83,962.85 496.38,962.85 496.38,955.18 
		456.89,955.18 	"/>
	<path d="M548.82,985.09c2.75-1.37,4.91-3.27,6.47-5.68c1.57-2.41,2.35-5.18,2.35-8.32c0-3.13-0.75-5.9-2.24-8.28
		c-1.5-2.39-3.57-4.26-6.22-5.61c-2.65-1.35-5.71-2.03-9.19-2.03h-17.87v50.63h8.39v-18.66h8.9l10.78,18.66h9.48l-11.99-20.24
		C548.06,985.42,548.45,985.28,548.82,985.09z M544.74,978.33c-1.28,0.72-2.74,1.08-4.38,1.08h-9.84v-16.56h9.19
		c2.75,0,4.99,0.77,6.73,2.31c1.74,1.54,2.6,3.52,2.6,5.93c0,1.59-0.4,3.01-1.19,4.27C547.05,976.62,546.01,977.61,544.74,978.33z"
		/>
	<path d="M618.33,987.3c0,2.36-0.48,4.42-1.45,6.18c-0.97,1.76-2.35,3.14-4.16,4.12c-1.81,0.99-3.89,1.48-6.26,1.48
		c-2.31,0-4.36-0.49-6.15-1.48c-1.78-0.99-3.17-2.36-4.16-4.12c-0.99-1.76-1.48-3.82-1.48-6.18v-32.12h-8.39v32.12
		c0,3.91,0.83,7.33,2.5,10.27c1.66,2.94,4,5.22,7.02,6.84c3.01,1.61,6.52,2.42,10.52,2.42c4.15,0,7.75-0.81,10.81-2.42
		c3.06-1.62,5.42-3.89,7.09-6.84c1.66-2.94,2.5-6.37,2.5-10.27v-32.12h-8.39V987.3z"/>
	<path d="M689.83,994.32c-1.47,1.5-3.14,2.67-4.99,3.51c-1.86,0.84-3.85,1.27-5.97,1.27c-3.23,0-6.11-0.8-8.64-2.39
		c-2.53-1.59-4.51-3.79-5.93-6.58c-1.42-2.8-2.13-6-2.13-9.62c0-3.62,0.71-6.81,2.13-9.58c1.42-2.77,3.37-4.95,5.86-6.55
		c2.48-1.59,5.32-2.39,8.5-2.39c2.07,0,4.05,0.39,5.93,1.16c1.88,0.77,3.56,1.87,5.03,3.29c1.47,1.42,2.64,3.05,3.51,4.88l7.67-3.11
		c-1.21-2.75-2.93-5.16-5.17-7.23c-2.24-2.07-4.81-3.7-7.7-4.88c-2.89-1.18-5.98-1.77-9.26-1.77c-4.87,0-9.19,1.12-12.95,3.36
		c-3.76,2.24-6.72,5.33-8.86,9.26c-2.15,3.93-3.22,8.45-3.22,13.56c0,5.11,1.07,9.63,3.22,13.56c2.15,3.93,5.11,7.02,8.9,9.26
		c3.78,2.24,8.11,3.36,12.98,3.36c3.33,0,6.46-0.6,9.4-1.81c2.94-1.2,5.52-2.9,7.74-5.1c2.22-2.19,3.93-4.71,5.14-7.56l-7.67-3.11
		C692.47,991.09,691.3,992.82,689.83,994.32z"/>
	<polygon points="722.85,962.85 738.4,962.85 738.4,1005.82 746.79,1005.82 746.79,962.85 762.34,962.85 762.34,955.18 
		722.85,955.18 	"/>
	<rect x="788.09" y="955.18" width="8.39" height="50.63"/>
	<path d="M862.85,957.68c-3.83-2.24-8.26-3.36-13.27-3.36c-4.97,0-9.36,1.12-13.16,3.36c-3.81,2.24-6.81,5.33-9.01,9.26
		c-2.19,3.93-3.29,8.45-3.29,13.56c0,5.11,1.1,9.65,3.29,13.6c2.19,3.95,5.22,7.04,9.08,9.26c3.86,2.22,8.29,3.33,13.31,3.33
		c4.97,0,9.34-1.11,13.13-3.33c3.79-2.22,6.75-5.3,8.9-9.26c2.15-3.95,3.22-8.49,3.22-13.6c0-5.11-1.07-9.63-3.22-13.56
		C869.67,963.01,866.68,959.92,862.85,957.68z M864.37,990.08c-1.42,2.77-3.39,4.95-5.9,6.55c-2.51,1.59-5.4,2.39-8.68,2.39
		c-3.33,0-6.28-0.8-8.86-2.39c-2.58-1.59-4.61-3.77-6.08-6.55c-1.47-2.77-2.21-5.97-2.21-9.58c0-3.62,0.73-6.81,2.21-9.58
		c1.47-2.77,3.47-4.94,6-6.51c2.53-1.57,5.44-2.35,8.72-2.35c3.33,0,6.26,0.78,8.79,2.35c2.53,1.57,4.52,3.75,5.97,6.55
		c1.45,2.8,2.17,5.98,2.17,9.55C866.5,984.12,865.79,987.31,864.37,990.08z"/>
	<polygon points="938.32,991.78 911.42,955.18 902.74,955.18 902.74,1005.82 911.13,1005.82 911.13,968.78 938.32,1005.82 
		946.71,1005.82 946.71,955.18 938.32,955.18 	"/>
	<path d="M560.61,718.57L560.61,718.57c127.83,0,231.46-103.63,231.46-231.46V261.25c0-127.83-103.63-231.46-231.46-231.46h0
		c-127.83,0-231.46,103.63-231.46,231.46v225.86C329.15,614.94,432.78,718.57,560.61,718.57z M346.22,261.25
		c0-57.27,22.3-111.1,62.79-151.6c40.49-40.49,94.33-62.79,151.6-62.79c57.27,0,111.1,22.3,151.6,62.79
		C752.7,150.14,775,203.98,775,261.25v225.86c0,57.27-22.3,111.1-62.79,151.6c-40.49,40.49-94.33,62.79-151.6,62.79
		c-57.27,0-111.1-22.3-151.6-62.79c-40.49-40.49-62.79-94.33-62.79-151.6V261.25z"/>
	<path d="M560.61,684.43c52.71,0,102.26-20.52,139.53-57.79c37.27-37.27,57.79-86.82,57.79-139.53V261.25
		c0-52.71-20.52-102.26-57.79-139.53c-37.27-37.27-86.82-57.79-139.53-57.79c-52.71,0-102.26,20.52-139.53,57.79
		s-57.79,86.82-57.79,139.53v225.86c0,52.71,20.53,102.26,57.79,139.53C458.35,663.91,507.9,684.43,560.61,684.43z M503.14,162.76
		c0.49-15.58,13.36-29.69,28.2-35.13c37.11-13.36,80.4,7.67,80.4,7.67l-3.71,44.03h-3.46c-3.22-47-48.98-58.63-66.79-49.48
		c-11.38,6.18-14.35,22.76-10.64,34.88c4.21,14.6,17.07,24,30.18,30.92c14.84,8.16,29.44,15.83,41.81,27.71
		c26.22,24.99,23.75,64.81,1.98,77.68c-39.33,23.5-95.98-2.23-95.98-2.23l3.96-44.03h3.46c1.73,43.54,43.04,57.39,61.6,51.21
		c19.54-6.68,25.73-35.62,14.6-52.2c-12.62-18.55-35.87-29.93-55.17-40.57C515.26,202.83,502.4,183.29,503.14,162.76z
		 M573.41,374.18c0,7.07-5.73,12.8-12.8,12.8s-12.8-5.73-12.8-12.8s5.73-12.8,12.8-12.8S573.41,367.11,573.41,374.18z
		 M503.14,476.99c0.49-15.58,13.36-29.69,28.2-35.13c37.11-13.36,80.4,7.67,80.4,7.67l-3.71,44.03h-3.46
		c-3.22-47-48.98-58.63-66.79-49.48c-11.38,6.18-14.35,22.76-10.64,34.88c4.21,14.6,17.07,24,30.18,30.92
		c14.84,8.16,29.44,15.83,41.81,27.71c26.22,24.99,23.75,64.81,1.98,77.68c-39.33,23.5-95.98-2.23-95.98-2.23l3.96-44.03h3.46
		c1.73,43.54,43.04,57.39,61.6,51.21c19.54-6.68,25.73-35.62,14.6-52.2c-12.62-18.55-35.87-29.93-55.17-40.57
		C515.26,517.07,502.4,497.52,503.14,476.99z"/>
</g>
</svg>
